<svg xmlns="http://www.w3.org/2000/svg" width="22.011" height="24.126" viewBox="0 0 22.011 24.126"><g transform="translate(0.178 0.176)"><path d="M6.338,23.755a3.44,3.44,0,0,1-.519-.1,2.974,2.974,0,0,1-1.331-.723l-.027-.027L2.27,20.719q-.065-.066-.126-.134c-.029-.031-.057-.064-.085-.1l-.045-.058a3.1,3.1,0,0,1-.379-.627l-.4-.3a3.123,3.123,0,0,1-.6-4.37l.482-.637a18.7,18.7,0,0,1,.029-3.044c.011-.081.035-.318.051-.5l.019-.194a.335.335,0,0,1,.371-.3.339.339,0,0,1,.3.371l-.019.189c-.017.19-.041.441-.053.512A17.725,17.725,0,0,0,1.8,14.554a.334.334,0,0,1-.067.24l-.562.743a2.449,2.449,0,0,0,.195,3.179A3.119,3.119,0,0,1,2.27,16.3l.565-.564a18.484,18.484,0,0,1,.446-3.013,20.991,20.991,0,0,0,.586-3.961l.007-.1a2.356,2.356,0,0,0-1.45-1.731A1.55,1.55,0,0,0,2.1,6.882c-.172-.01-.223.032-.269.092,0,.1.014.262.025.422.032.487.08,1.224.083,2.044a.338.338,0,1,1-.675,0c0-.8-.051-1.524-.081-2-.041-.643-.046-.71.08-.831a.91.91,0,0,1,.88-.4,2.259,2.259,0,0,1,.476.076,2.874,2.874,0,0,1,1.652,1.49.957.957,0,0,1,.717-.1l.077.018c.049.011.1.023.148.038a1.766,1.766,0,0,1,.236.088c.043.018.086.04.128.063s.074.041.111.064L8.048,4.823a1.559,1.559,0,0,1,2.207-.3,1.581,1.581,0,0,1,.562.751,1.5,1.5,0,0,1,2.159-.244,1.578,1.578,0,0,1,.346,2.153h0a1.626,1.626,0,0,1,.325.539l.44-.054A1.436,1.436,0,0,1,14.8,7.5a1.6,1.6,0,0,1,1.076.489l.028.029.005.006.022.024.007.008.019.022.007.008.018.023.008.01.017.021.009.011.015.02.01.015.013.018.013.019.009.012.017.027,0,.006a1.579,1.579,0,0,1,.11,1.466,1.536,1.536,0,0,1-.3.455h0l-.028.029v0a1.651,1.651,0,0,1,.325.068h0l.017.006a1.329,1.329,0,0,1,.53.322,1.569,1.569,0,0,1,.3.411v0l0,.01c.016.032.03.064.044.1a1.571,1.571,0,0,1-.212,1.555,1.529,1.529,0,0,1-.136.156L16.7,12.9l-1.658,1.656a1.488,1.488,0,0,1,.167.04,1.539,1.539,0,0,1,.4.181,1.5,1.5,0,0,1,.27.216,1.561,1.561,0,0,1,.2.245l.021.034,0,.005.014.022.007.012.008.014.02.037,0,0,.012.023,0,0q.025.049.047.1l0,.005.01.023v0l.016.042.005.014.005.015.007.02,0,.011a1.577,1.577,0,0,1-.04,1.071l0,.011-.008.018-.007.016,0,.006a1.582,1.582,0,0,1-.327.476l-.925.9a.338.338,0,0,1-.473-.482l.923-.9c.016-.016.031-.032.046-.05h0l0,0c.015-.018.03-.037.043-.056l.021-.03a.912.912,0,0,0,0-.993.8.8,0,0,0-.115-.14.9.9,0,0,0-1.224-.046c-.017.015-.034.031-.05.046a.279.279,0,0,1-.026.024l-2.2,2.046a.338.338,0,0,1-.541-.379s0-.01.006-.015h0a.092.092,0,0,0,.008-.012v0l.008-.012h0l.01-.013a.347.347,0,0,1,.049-.057l0,0,4.827-4.676.021-.022.005-.006.018-.02,0,0,.018-.021.007-.009.012-.015.009-.012a.141.141,0,0,0,.012-.016l.01-.015,0,0a.905.905,0,0,0,.089-.809l-.009-.022,0-.008a.892.892,0,0,0-.194-.291l-.013-.013-.008-.007,0-.005-.012-.01h0a.906.906,0,0,0-.631-.17,1.261,1.261,0,0,0-.143.015.887.887,0,0,0-.457.191L12.38,13.716s0,0,0,0,0,0,0,0l-1.138,1.113a.331.331,0,0,1-.236.1.344.344,0,0,1-.242-.1.338.338,0,0,1,.006-.478L11.9,13.236l.014-.012,2.6-2.6.016-.017.437-.436.437-.438a.9.9,0,0,0,.234-.4l0-.012V9.315a.923.923,0,0,0,.013-.364.9.9,0,0,0-.221-.455.414.414,0,0,1-.068-.068l-.015-.013c-.026-.023-.053-.044-.079-.064l-.056-.034c-.027-.018-.054-.035-.084-.051l-.07-.03L15,8.215c-.03-.01-.059-.018-.08-.023l-.038-.005a.773.773,0,0,0-.5.1.281.281,0,0,1-.054.025,1.235,1.235,0,0,0-.191.156L13.2,9.4a.116.116,0,0,1-.017.016l-2.552,2.554-.006.007L8.885,13.81a.338.338,0,0,1-.492-.463l1.739-1.837.019-.021,2.567-2.568a1.04,1.04,0,0,0,.339-.71c0-.009,0-.018,0-.027a.366.366,0,0,1-.011-.056.877.877,0,0,0-.256-.521.345.345,0,0,1-.033-.033l-.036-.029a.3.3,0,0,1-.038-.038.88.88,0,0,0-.537-.189h-.006a.892.892,0,0,0-.635.273L6.745,12.348l-.194.58a.334.334,0,0,1-.318.23.352.352,0,0,1-.107-.015.341.341,0,0,1-.215-.428l.212-.635.186-.993a2.493,2.493,0,0,0-.753-2.4l-.02-.016a1.709,1.709,0,0,0-.189-.139,1.3,1.3,0,0,0-.178-.1l-.049-.021c-.028-.01-.057-.021-.089-.031h0l-.006,0c-.04-.011-.081-.022-.122-.031l-.014,0L4.85,8.337a.622.622,0,0,0-.1-.011.367.367,0,0,0-.058,0,.205.205,0,0,0-.121.065l-.006.075s0,.028,0,.036c0,.041-.007.086-.01.134,0,0,0,0,0,.008,0,.055-.008.113-.012.17A21.38,21.38,0,0,1,3.933,12.9a17.7,17.7,0,0,0-.428,2.994v0a4.678,4.678,0,0,1-.04.525,1.588,1.588,0,0,0,.193,1.234.338.338,0,0,1-.271.538.34.34,0,0,1-.274-.137,1.932,1.932,0,0,1-.357-1.283l-.01.011a2.45,2.45,0,0,0-.437,2.861l0,.009.018.032.016.029.006.011c.028.048.057.1.087.141a.271.271,0,0,1,.022.03c.033.048.066.094.1.14l0,.005.013.017,0,0,.023.027.025.029.015.018.021.023.029.031L2.7,20.2l.042.043,2.191,2.191.038.037.007.006.039.036,0,0a2.306,2.306,0,0,0,.832.455h0l.056.017.012,0,.037.01.023.007a2.828,2.828,0,0,0,.351.069h.011l.021,0,.041,0,.025,0a2.505,2.505,0,0,0,1.526-.309c-.116-.063-.247-.138-.395-.226a.338.338,0,0,1,.342-.583c.517.3.7.4.928.4a1.35,1.35,0,0,1,.217-.037,3.2,3.2,0,0,0,1.756-1l1.145-1.145.807-.808.035-.032a.337.337,0,0,1,.5.448.318.318,0,0,1-.033.039.191.191,0,0,1-.025.026l-.022.022-1.927,1.928h0a4.958,4.958,0,0,1-.848.683A3.243,3.243,0,0,1,9.2,23a.318.318,0,0,1-.089.026c-.05.008-.1.013-.146.018h0c-.04.011-.083.026-.137.046s-.1.04-.145.064l-.046.023c-.04.02-.081.042-.118.064-.056.03-.11.062-.161.094l-.043.026-.011.006-.033.02-.01.006-.036.02-.006,0a3.066,3.066,0,0,1-1.348.36l-.146,0C6.589,23.775,6.462,23.767,6.338,23.755Zm.65-12.6,4.039-4.04a1.57,1.57,0,0,1,1.111-.47h.014a1.544,1.544,0,0,1,.624.137.9.9,0,0,0-.208-1.214.845.845,0,0,0-1.261.175L10.5,6.8l-.008.01L8.317,9.686a.337.337,0,1,1-.538-.407L9.966,6.392A.9.9,0,1,0,8.584,5.231L6.208,8.37A3.161,3.161,0,0,1,6.987,11.151Zm6.561,7.568a.338.338,0,1,1,.338.338A.338.338,0,0,1,13.548,18.719Zm5.673-9.48a.34.34,0,0,1,.256-.4l1.767-.4a.337.337,0,1,1,.148.657l-1.767.4a.326.326,0,0,1-.075.008A.34.34,0,0,1,19.221,9.239Zm-1.2-2.255a.338.338,0,0,1-.008-.477l1.708-1.767a.337.337,0,1,1,.486.468L18.5,6.977a.338.338,0,0,1-.242.1A.334.334,0,0,1,18.026,6.984ZM15.851,5.722a.34.34,0,0,1-.266-.4l.339-1.687a.337.337,0,1,1,.661.132l-.338,1.688a.337.337,0,0,1-.33.272A.344.344,0,0,1,15.851,5.722ZM5.438,4.5l-1.5-.839a.338.338,0,0,1,.328-.591l1.5.841a.338.338,0,0,1-.166.632A.33.33,0,0,1,5.438,4.5ZM7.014,2.786,5.857.617A.338.338,0,1,1,6.452.3L7.61,2.467a.338.338,0,0,1-.139.457.329.329,0,0,1-.159.04A.337.337,0,0,1,7.014,2.786Zm2.969-.309a.337.337,0,0,1-.306-.365l.166-1.8a.337.337,0,0,1,.672.061l-.164,1.805a.339.339,0,0,1-.336.306A.156.156,0,0,1,9.984,2.476Z" fill="#b7b7b7" stroke="#b7b7b7" stroke-width="0.35"/></g></svg>