<svg xmlns="http://www.w3.org/2000/svg" width="17.801" height="17.8" viewBox="0 0 17.801 17.8"><g transform="translate(-600.589 -765)"><g transform="translate(610.386 765)"><g transform="translate(1.18)"><path d="M146.341,597.827l-5.289-5.29.441-.441a3.74,3.74,0,0,1,5.289,5.29Zm-3.471-5.235,3.416,3.415a2.5,2.5,0,0,0-.385-3.03A2.546,2.546,0,0,0,142.87,592.592Z" transform="translate(-141.052 -591)" fill="#fcee21"/></g><g transform="translate(0 2.183)"><rect width="1.246" height="7.262" transform="matrix(0.857, -0.515, 0.515, 0.857, 0, 0.642)" fill="#fcee21"/></g></g><g transform="translate(600.589 775.839)"><path d="M120.59,618.2l1.857-6.962,1.2.321-1.3,4.888,4.9-1.291.318,1.206Z" transform="translate(-120.59 -611.239)" fill="#fcee21"/></g><g transform="translate(603.346 767.008)"><path d="M130.246,610.125l-1.469-3.766-3.766-1.472,7.74-7.811.886.878-6.4,6.463,2.508.98.976,2.5,5.2-5.17.879.884Z" transform="translate(-125.011 -597.075)" fill="#fcee21"/></g></g></svg>