<svg xmlns="http://www.w3.org/2000/svg" width="18.209" height="17.071" viewBox="0 0 18.209 17.071"><path d="M371.69,281.071a5.69,5.69,0,0,1-4.023-9.714l6.578-7.048.832.776-6.592,7.063a4.552,4.552,0,1,0,6.424,6.452l7.149-7.62a3.414,3.414,0,1,0-4.815-4.841l-7.149,7.619a2.289,2.289,0,0,0-.02,3.239,2.256,2.256,0,0,0,1.606.664h.006a2.277,2.277,0,0,0,1.614-.67l6.86-7.153.821.788-6.868,7.161a3.411,3.411,0,0,1-2.425,1.012h-.008a3.386,3.386,0,0,1-2.411-1,3.423,3.423,0,0,1,.007-4.835l7.149-7.619a4.552,4.552,0,1,1,6.45,6.424l-7.149,7.619A5.661,5.661,0,0,1,371.69,281.071Z" transform="translate(-366 -264)" fill="#b7b7b7"/></svg>